<svg width="179" height="28" viewBox="0 0 179 28" fill="none" xmlns="http://www.w3.org/2000/svg">
<path d="M0.4 22L4.94002 7.6H8.47329L13.0133 22H10.53L6.41332 9.07997H6.94665L2.88329 22H0.4ZM2.93332 18.8767V16.6267H10.4933V18.8767H2.93332ZM16.81 22V7.6H26.11V9.85663H19.2166V13.4134H24.91V15.67H19.2166V19.7434H26.11V22H16.81ZM30.51 22V7.6H36.46C36.6 7.6 36.7808 7.605 37.0025 7.615C37.2241 7.625 37.4278 7.64667 37.6133 7.68C38.4455 7.80889 39.1333 8.08694 39.6766 8.51417C40.22 8.94139 40.623 9.47889 40.8858 10.1267C41.1486 10.7744 41.28 11.4944 41.28 12.2867C41.28 13.4633 40.9833 14.473 40.39 15.3158C39.7966 16.1586 38.8866 16.6811 37.66 16.8833L36.6333 16.9733H32.9166V22H30.51ZM38.78 22L35.94 16.14L38.3933 15.6L41.5133 22H38.78ZM32.9166 14.7167H36.36C36.4955 14.7167 36.6458 14.71 36.8108 14.6967C36.9758 14.6833 37.13 14.6578 37.2733 14.62C37.6711 14.5189 37.9847 14.342 38.2142 14.0892C38.4436 13.8364 38.6064 13.5495 38.7025 13.2283C38.7986 12.9072 38.8467 12.5933 38.8467 12.2867C38.8467 11.98 38.7986 11.6661 38.7025 11.345C38.6064 11.0239 38.4436 10.7369 38.2142 10.4841C37.9847 10.2314 37.6711 10.0544 37.2733 9.9533C37.13 9.91441 36.9758 9.88858 36.8108 9.8758C36.6458 9.86302 36.4955 9.85663 36.36 9.85663H32.9166V14.7167ZM51.8033 22.3C50.3644 22.3 49.1305 21.9856 48.1017 21.3567C47.0728 20.7278 46.2836 19.85 45.7342 18.7233C45.1847 17.5967 44.91 16.2889 44.91 14.8C44.91 13.3111 45.1847 12.0033 45.7342 10.8767C46.2836 9.75 47.0728 8.87222 48.1017 8.24333C49.1305 7.61444 50.3644 7.3 51.8033 7.3C53.2422 7.3 54.4761 7.61444 55.505 8.24333C56.5339 8.87222 57.323 9.75 57.8725 10.8767C58.4219 12.0033 58.6966 13.3111 58.6966 14.8C58.6966 16.2889 58.4219 17.5967 57.8725 18.7233C57.323 19.85 56.5339 20.7278 55.505 21.3567C54.4761 21.9856 53.2422 22.3 51.8033 22.3ZM51.8033 20.0267C52.77 20.0378 53.5747 19.8264 54.2175 19.3925C54.8603 18.9586 55.3425 18.3472 55.6642 17.5584C55.9859 16.7695 56.1467 15.85 56.1467 14.8C56.1467 13.75 55.9859 12.8358 55.6642 12.0575C55.3425 11.2791 54.8603 10.6733 54.2175 10.24C53.5747 9.80663 52.77 9.58441 51.8033 9.5733C50.8367 9.56219 50.0325 9.7733 49.3908 10.2066C48.7491 10.64 48.2675 11.2514 47.9458 12.0408C47.6241 12.8303 47.4622 13.75 47.46 14.8C47.4577 15.85 47.6175 16.7639 47.9391 17.5417C48.2608 18.3195 48.7436 18.9253 49.3875 19.3592C50.0314 19.7931 50.8367 20.0156 51.8033 20.0267ZM68.7 22V7.6H74.65C74.79 7.6 74.9708 7.605 75.1925 7.615C75.4141 7.625 75.6178 7.64667 75.8033 7.68C76.6355 7.80889 77.3233 8.08694 77.8666 8.51417C78.41 8.94139 78.813 9.47889 79.0758 10.1267C79.3386 10.7744 79.47 11.4944 79.47 12.2867C79.47 13.0789 79.3372 13.7989 79.0716 14.4467C78.8061 15.0944 78.4016 15.6319 77.8583 16.0592C77.315 16.4864 76.63 16.7644 75.8033 16.8933C75.6178 16.92 75.4128 16.94 75.1883 16.9533C74.9639 16.9666 74.7844 16.9733 74.65 16.9733H71.1066V22H68.7ZM71.1066 14.7167H74.55C74.6855 14.7167 74.8358 14.71 75.0008 14.6967C75.1658 14.6833 75.32 14.6578 75.4633 14.62C75.8611 14.5189 76.1747 14.342 76.4042 14.0892C76.6336 13.8364 76.7964 13.5495 76.8925 13.2283C76.9886 12.9072 77.0367 12.5933 77.0367 12.2867C77.0367 11.98 76.9886 11.6661 76.8925 11.345C76.7964 11.0239 76.6336 10.7369 76.4042 10.4841C76.1747 10.2314 75.8611 10.0544 75.4633 9.9533C75.32 9.91441 75.1658 9.88858 75.0008 9.8758C74.8358 9.86302 74.6855 9.85663 74.55 9.85663H71.1066V14.7167ZM83.47 22V7.6H89.42C89.56 7.6 89.7408 7.605 89.9625 7.615C90.1841 7.625 90.3878 7.64667 90.5733 7.68C91.4055 7.80889 92.0933 8.08694 92.6366 8.51417C93.18 8.94139 93.583 9.47889 93.8458 10.1267C94.1086 10.7744 94.24 11.4944 94.24 12.2867C94.24 13.4633 93.9433 14.473 93.35 15.3158C92.7566 16.1586 91.8466 16.6811 90.62 16.8833L89.5933 16.9733H85.8766V22H83.47ZM91.74 22L88.9 16.14L91.3533 15.6L94.4733 22H91.74ZM85.8766 14.7167H89.32C89.4555 14.7167 89.6058 14.71 89.7708 14.6967C89.9358 14.6833 90.09 14.6578 90.2333 14.62C90.6311 14.5189 90.9447 14.342 91.1742 14.0892C91.4036 13.8364 91.5664 13.5495 91.6625 13.2283C91.7586 12.9072 91.8067 12.5933 91.8067 12.2867C91.8067 11.98 91.7586 11.6661 91.6625 11.345C91.5664 11.0239 91.4036 10.7369 91.1742 10.4841C90.9447 10.2314 90.6311 10.0544 90.2333 9.9533C90.09 9.91441 89.9358 9.88858 89.7708 9.8758C89.6058 9.86302 89.4555 9.85663 89.32 9.85663H85.8766V14.7167ZM98.67 22V7.6H107.97V9.85663H101.077V13.4134H106.77V15.67H101.077V19.7434H107.97V22H98.67ZM117.57 22.3C116.519 22.3 115.572 22.1167 114.728 21.75C113.885 21.3833 113.192 20.8586 112.648 20.1758C112.105 19.4931 111.758 18.68 111.607 17.7367L114.113 17.36C114.323 18.2134 114.76 18.8739 115.423 19.3417C116.087 19.8095 116.852 20.0434 117.72 20.0434C118.232 20.0434 118.716 19.9628 119.17 19.8017C119.624 19.6406 119.993 19.4059 120.276 19.0975C120.559 18.7892 120.7 18.4145 120.7 17.9733C120.7 17.77 120.667 17.5842 120.601 17.4158C120.535 17.2475 120.437 17.0964 120.307 16.9625C120.178 16.8286 120.012 16.7072 119.809 16.5983C119.606 16.4894 119.369 16.3933 119.097 16.31L115.38 15.2133C115.06 15.1211 114.714 14.9955 114.343 14.8366C113.972 14.6778 113.622 14.4611 113.293 14.1866C112.964 13.9122 112.694 13.5597 112.483 13.1291C112.272 12.6986 112.167 12.1655 112.167 11.53C112.167 10.6022 112.402 9.82416 112.874 9.19583C113.346 8.5675 113.979 8.09583 114.775 7.78083C115.571 7.46583 116.457 7.31111 117.433 7.31667C118.418 7.32778 119.297 7.49833 120.072 7.82833C120.846 8.15833 121.492 8.63556 122.011 9.26C122.529 9.88444 122.896 10.6422 123.11 11.5333L120.52 11.9767C120.416 11.4711 120.211 11.0408 119.905 10.6858C119.599 10.3308 119.229 10.0594 118.792 9.87164C118.356 9.68386 117.892 9.58441 117.4 9.5733C116.919 9.56219 116.474 9.63247 116.065 9.78414C115.656 9.93581 115.326 10.1511 115.076 10.43C114.825 10.7089 114.7 11.0355 114.7 11.41C114.7 11.7667 114.806 12.0556 115.019 12.2767C115.232 12.4978 115.498 12.6742 115.817 12.8058C116.136 12.9375 116.457 13.0467 116.78 13.1333L119.36 13.85C119.713 13.9456 120.109 14.0734 120.548 14.2334C120.987 14.3933 121.41 14.6164 121.817 14.9025C122.223 15.1886 122.559 15.5653 122.823 16.0325C123.088 16.4997 123.22 17.0911 123.22 17.8067C123.22 18.5545 123.066 19.2103 122.757 19.7742C122.449 20.3381 122.031 20.8064 121.502 21.1792C120.973 21.5519 120.37 21.8319 119.692 22.0192C119.015 22.2064 118.308 22.3 117.57 22.3ZM130.853 22V9.85663H126.19V7.6H137.923V9.85663H133.26V22H130.853ZM141.72 22V7.6H144.127V22H141.72ZM155.073 22.3C154.139 22.3 153.263 22.1347 152.445 21.8042C151.627 21.4736 150.911 20.9889 150.296 20.35C149.681 19.7111 149.199 18.9264 148.852 17.9958C148.504 17.0653 148.33 16 148.33 14.8C148.33 13.2278 148.624 11.8828 149.212 10.765C149.801 9.64723 150.604 8.79084 151.622 8.19583C152.639 7.60083 153.79 7.30333 155.073 7.30333C156.847 7.30333 158.251 7.71528 159.287 8.53916C160.322 9.36304 161.022 10.5155 161.387 11.9966L158.933 12.3866C158.659 11.5366 158.211 10.8572 157.589 10.3483C156.967 9.83941 156.179 9.58219 155.223 9.57663C154.257 9.56552 153.452 9.77636 152.811 10.2091C152.169 10.6419 151.687 11.2528 151.366 12.0416C151.044 12.8305 150.882 13.75 150.88 14.8C150.878 15.85 151.037 16.7639 151.359 17.5417C151.681 18.3195 152.164 18.9253 152.807 19.3592C153.451 19.7931 154.257 20.0156 155.223 20.0267C155.946 20.0378 156.58 19.9081 157.126 19.6375C157.672 19.367 158.119 18.9561 158.466 18.405C158.813 17.8539 159.048 17.1655 159.17 16.34H156.63V14.45H161.73C161.744 14.5533 161.755 14.7089 161.761 14.9167C161.767 15.1245 161.77 15.25 161.77 15.2933C161.77 16.6522 161.502 17.8597 160.965 18.9158C160.428 19.9719 159.66 20.8 158.661 21.4C157.661 22 156.466 22.3 155.073 22.3ZM165.77 22V7.6H175.07V9.85663H168.177V13.4134H173.87V15.67H168.177V19.7434H175.07V22H165.77Z" fill="#0B1E3C"/>
</svg>
